<?xml version="1.0" encoding="utf-8" standalone="no"?>
<!DOCTYPE svg PUBLIC "-//W3C//DTD SVG 1.1//EN"
  "http://www.w3.org/Graphics/SVG/1.1/DTD/svg11.dtd">
<!-- Created with matplotlib (https://matplotlib.org/) -->
<svg height="345.6pt" version="1.1" viewBox="0 0 460.8 345.6" width="460.8pt" xmlns="http://www.w3.org/2000/svg" xmlns:xlink="http://www.w3.org/1999/xlink">
 <defs>
  <style type="text/css">
*{stroke-linecap:butt;stroke-linejoin:round;}
  </style>
 </defs>
 <g id="figure_1">
  <g id="axes_1">
   <g id="patch_1">
    <path d="M 57.6 307.584 
L 414.72 307.584 
L 414.72 41.472 
L 57.6 41.472 
z
" style="fill:#ffffff;"/>
   </g>
   <g id="matplotlib.axis_1">
    <g id="xtick_1">
     <g id="line2d_1">
      <defs>
       <path d="M 0 0 
L 0 3.5 
" id="m6df305cb98" style="stroke:#000000;stroke-width:0.8;"/>
      </defs>
      <g>
       <use style="stroke:#000000;stroke-width:0.8;" x="73.832727" xlink:href="#m6df305cb98" y="307.584"/>
      </g>
     </g>
     <g id="text_1">
      <!-- 0 -->
      <defs>
       <path d="M 31.78125 66.40625 
Q 24.171875 66.40625 20.328125 58.90625 
Q 16.5 51.421875 16.5 36.375 
Q 16.5 21.390625 20.328125 13.890625 
Q 24.171875 6.390625 31.78125 6.390625 
Q 39.453125 6.390625 43.28125 13.890625 
Q 47.125 21.390625 47.125 36.375 
Q 47.125 51.421875 43.28125 58.90625 
Q 39.453125 66.40625 31.78125 66.40625 
z
M 31.78125 74.21875 
Q 44.046875 74.21875 50.515625 64.515625 
Q 56.984375 54.828125 56.984375 36.375 
Q 56.984375 17.96875 50.515625 8.265625 
Q 44.046875 -1.421875 31.78125 -1.421875 
Q 19.53125 -1.421875 13.0625 8.265625 
Q 6.59375 17.96875 6.59375 36.375 
Q 6.59375 54.828125 13.0625 64.515625 
Q 19.53125 74.21875 31.78125 74.21875 
z
" id="DejaVuSans-48"/>
      </defs>
      <g transform="translate(70.651477 322.182437)scale(0.1 -0.1)">
       <use xlink:href="#DejaVuSans-48"/>
      </g>
     </g>
    </g>
    <g id="xtick_2">
     <g id="line2d_2">
      <g>
       <use style="stroke:#000000;stroke-width:0.8;" x="138.78901" xlink:href="#m6df305cb98" y="307.584"/>
      </g>
     </g>
     <g id="text_2">
      <!-- 2 -->
      <defs>
       <path d="M 19.1875 8.296875 
L 53.609375 8.296875 
L 53.609375 0 
L 7.328125 0 
L 7.328125 8.296875 
Q 12.9375 14.109375 22.625 23.890625 
Q 32.328125 33.6875 34.8125 36.53125 
Q 39.546875 41.84375 41.421875 45.53125 
Q 43.3125 49.21875 43.3125 52.78125 
Q 43.3125 58.59375 39.234375 62.25 
Q 35.15625 65.921875 28.609375 65.921875 
Q 23.96875 65.921875 18.8125 64.3125 
Q 13.671875 62.703125 7.8125 59.421875 
L 7.8125 69.390625 
Q 13.765625 71.78125 18.9375 73 
Q 24.125 74.21875 28.421875 74.21875 
Q 39.75 74.21875 46.484375 68.546875 
Q 53.21875 62.890625 53.21875 53.421875 
Q 53.21875 48.921875 51.53125 44.890625 
Q 49.859375 40.875 45.40625 35.40625 
Q 44.1875 33.984375 37.640625 27.21875 
Q 31.109375 20.453125 19.1875 8.296875 
z
" id="DejaVuSans-50"/>
      </defs>
      <g transform="translate(135.60776 322.182437)scale(0.1 -0.1)">
       <use xlink:href="#DejaVuSans-50"/>
      </g>
     </g>
    </g>
    <g id="xtick_3">
     <g id="line2d_3">
      <g>
       <use style="stroke:#000000;stroke-width:0.8;" x="203.745293" xlink:href="#m6df305cb98" y="307.584"/>
      </g>
     </g>
     <g id="text_3">
      <!-- 4 -->
      <defs>
       <path d="M 37.796875 64.3125 
L 12.890625 25.390625 
L 37.796875 25.390625 
z
M 35.203125 72.90625 
L 47.609375 72.90625 
L 47.609375 25.390625 
L 58.015625 25.390625 
L 58.015625 17.1875 
L 47.609375 17.1875 
L 47.609375 0 
L 37.796875 0 
L 37.796875 17.1875 
L 4.890625 17.1875 
L 4.890625 26.703125 
z
" id="DejaVuSans-52"/>
      </defs>
      <g transform="translate(200.564043 322.182437)scale(0.1 -0.1)">
       <use xlink:href="#DejaVuSans-52"/>
      </g>
     </g>
    </g>
    <g id="xtick_4">
     <g id="line2d_4">
      <g>
       <use style="stroke:#000000;stroke-width:0.8;" x="268.701575" xlink:href="#m6df305cb98" y="307.584"/>
      </g>
     </g>
     <g id="text_4">
      <!-- 6 -->
      <defs>
       <path d="M 33.015625 40.375 
Q 26.375 40.375 22.484375 35.828125 
Q 18.609375 31.296875 18.609375 23.390625 
Q 18.609375 15.53125 22.484375 10.953125 
Q 26.375 6.390625 33.015625 6.390625 
Q 39.65625 6.390625 43.53125 10.953125 
Q 47.40625 15.53125 47.40625 23.390625 
Q 47.40625 31.296875 43.53125 35.828125 
Q 39.65625 40.375 33.015625 40.375 
z
M 52.59375 71.296875 
L 52.59375 62.3125 
Q 48.875 64.0625 45.09375 64.984375 
Q 41.3125 65.921875 37.59375 65.921875 
Q 27.828125 65.921875 22.671875 59.328125 
Q 17.53125 52.734375 16.796875 39.40625 
Q 19.671875 43.65625 24.015625 45.921875 
Q 28.375 48.1875 33.59375 48.1875 
Q 44.578125 48.1875 50.953125 41.515625 
Q 57.328125 34.859375 57.328125 23.390625 
Q 57.328125 12.15625 50.6875 5.359375 
Q 44.046875 -1.421875 33.015625 -1.421875 
Q 20.359375 -1.421875 13.671875 8.265625 
Q 6.984375 17.96875 6.984375 36.375 
Q 6.984375 53.65625 15.1875 63.9375 
Q 23.390625 74.21875 37.203125 74.21875 
Q 40.921875 74.21875 44.703125 73.484375 
Q 48.484375 72.75 52.59375 71.296875 
z
" id="DejaVuSans-54"/>
      </defs>
      <g transform="translate(265.520325 322.182437)scale(0.1 -0.1)">
       <use xlink:href="#DejaVuSans-54"/>
      </g>
     </g>
    </g>
    <g id="xtick_5">
     <g id="line2d_5">
      <g>
       <use style="stroke:#000000;stroke-width:0.8;" x="333.657858" xlink:href="#m6df305cb98" y="307.584"/>
      </g>
     </g>
     <g id="text_5">
      <!-- 8 -->
      <defs>
       <path d="M 31.78125 34.625 
Q 24.75 34.625 20.71875 30.859375 
Q 16.703125 27.09375 16.703125 20.515625 
Q 16.703125 13.921875 20.71875 10.15625 
Q 24.75 6.390625 31.78125 6.390625 
Q 38.8125 6.390625 42.859375 10.171875 
Q 46.921875 13.96875 46.921875 20.515625 
Q 46.921875 27.09375 42.890625 30.859375 
Q 38.875 34.625 31.78125 34.625 
z
M 21.921875 38.8125 
Q 15.578125 40.375 12.03125 44.71875 
Q 8.5 49.078125 8.5 55.328125 
Q 8.5 64.0625 14.71875 69.140625 
Q 20.953125 74.21875 31.78125 74.21875 
Q 42.671875 74.21875 48.875 69.140625 
Q 55.078125 64.0625 55.078125 55.328125 
Q 55.078125 49.078125 51.53125 44.71875 
Q 48 40.375 41.703125 38.8125 
Q 48.828125 37.15625 52.796875 32.3125 
Q 56.78125 27.484375 56.78125 20.515625 
Q 56.78125 9.90625 50.3125 4.234375 
Q 43.84375 -1.421875 31.78125 -1.421875 
Q 19.734375 -1.421875 13.25 4.234375 
Q 6.78125 9.90625 6.78125 20.515625 
Q 6.78125 27.484375 10.78125 32.3125 
Q 14.796875 37.15625 21.921875 38.8125 
z
M 18.3125 54.390625 
Q 18.3125 48.734375 21.84375 45.5625 
Q 25.390625 42.390625 31.78125 42.390625 
Q 38.140625 42.390625 41.71875 45.5625 
Q 45.3125 48.734375 45.3125 54.390625 
Q 45.3125 60.0625 41.71875 63.234375 
Q 38.140625 66.40625 31.78125 66.40625 
Q 25.390625 66.40625 21.84375 63.234375 
Q 18.3125 60.0625 18.3125 54.390625 
z
" id="DejaVuSans-56"/>
      </defs>
      <g transform="translate(330.476608 322.182437)scale(0.1 -0.1)">
       <use xlink:href="#DejaVuSans-56"/>
      </g>
     </g>
    </g>
    <g id="xtick_6">
     <g id="line2d_6">
      <g>
       <use style="stroke:#000000;stroke-width:0.8;" x="398.61414" xlink:href="#m6df305cb98" y="307.584"/>
      </g>
     </g>
     <g id="text_6">
      <!-- 10 -->
      <defs>
       <path d="M 12.40625 8.296875 
L 28.515625 8.296875 
L 28.515625 63.921875 
L 10.984375 60.40625 
L 10.984375 69.390625 
L 28.421875 72.90625 
L 38.28125 72.90625 
L 38.28125 8.296875 
L 54.390625 8.296875 
L 54.390625 0 
L 12.40625 0 
z
" id="DejaVuSans-49"/>
      </defs>
      <g transform="translate(392.25164 322.182437)scale(0.1 -0.1)">
       <use xlink:href="#DejaVuSans-49"/>
       <use x="63.623047" xlink:href="#DejaVuSans-48"/>
      </g>
     </g>
    </g>
   </g>
   <g id="matplotlib.axis_2">
    <g id="ytick_1">
     <g id="line2d_7">
      <defs>
       <path d="M 0 0 
L -3.5 0 
" id="maa3a4b3d69" style="stroke:#000000;stroke-width:0.8;"/>
      </defs>
      <g>
       <use style="stroke:#000000;stroke-width:0.8;" x="57.6" xlink:href="#maa3a4b3d69" y="295.488"/>
      </g>
     </g>
     <g id="text_7">
      <!-- −1.00 -->
      <defs>
       <path d="M 10.59375 35.5 
L 73.1875 35.5 
L 73.1875 27.203125 
L 10.59375 27.203125 
z
" id="DejaVuSans-8722"/>
       <path d="M 10.6875 12.40625 
L 21 12.40625 
L 21 0 
L 10.6875 0 
z
" id="DejaVuSans-46"/>
      </defs>
      <g transform="translate(19.954687 299.287219)scale(0.1 -0.1)">
       <use xlink:href="#DejaVuSans-8722"/>
       <use x="83.789062" xlink:href="#DejaVuSans-49"/>
       <use x="147.412109" xlink:href="#DejaVuSans-46"/>
       <use x="179.199219" xlink:href="#DejaVuSans-48"/>
       <use x="242.822266" xlink:href="#DejaVuSans-48"/>
      </g>
     </g>
    </g>
    <g id="ytick_2">
     <g id="line2d_8">
      <g>
       <use style="stroke:#000000;stroke-width:0.8;" x="57.6" xlink:href="#maa3a4b3d69" y="265.248"/>
      </g>
     </g>
     <g id="text_8">
      <!-- −0.75 -->
      <defs>
       <path d="M 8.203125 72.90625 
L 55.078125 72.90625 
L 55.078125 68.703125 
L 28.609375 0 
L 18.3125 0 
L 43.21875 64.59375 
L 8.203125 64.59375 
z
" id="DejaVuSans-55"/>
       <path d="M 10.796875 72.90625 
L 49.515625 72.90625 
L 49.515625 64.59375 
L 19.828125 64.59375 
L 19.828125 46.734375 
Q 21.96875 47.46875 24.109375 47.828125 
Q 26.265625 48.1875 28.421875 48.1875 
Q 40.625 48.1875 47.75 41.5 
Q 54.890625 34.8125 54.890625 23.390625 
Q 54.890625 11.625 47.5625 5.09375 
Q 40.234375 -1.421875 26.90625 -1.421875 
Q 22.3125 -1.421875 17.546875 -0.640625 
Q 12.796875 0.140625 7.71875 1.703125 
L 7.71875 11.625 
Q 12.109375 9.234375 16.796875 8.0625 
Q 21.484375 6.890625 26.703125 6.890625 
Q 35.15625 6.890625 40.078125 11.328125 
Q 45.015625 15.765625 45.015625 23.390625 
Q 45.015625 31 40.078125 35.4375 
Q 35.15625 39.890625 26.703125 39.890625 
Q 22.75 39.890625 18.8125 39.015625 
Q 14.890625 38.140625 10.796875 36.28125 
z
" id="DejaVuSans-53"/>
      </defs>
      <g transform="translate(19.954687 269.047219)scale(0.1 -0.1)">
       <use xlink:href="#DejaVuSans-8722"/>
       <use x="83.789062" xlink:href="#DejaVuSans-48"/>
       <use x="147.412109" xlink:href="#DejaVuSans-46"/>
       <use x="179.199219" xlink:href="#DejaVuSans-55"/>
       <use x="242.822266" xlink:href="#DejaVuSans-53"/>
      </g>
     </g>
    </g>
    <g id="ytick_3">
     <g id="line2d_9">
      <g>
       <use style="stroke:#000000;stroke-width:0.8;" x="57.6" xlink:href="#maa3a4b3d69" y="235.008"/>
      </g>
     </g>
     <g id="text_9">
      <!-- −0.50 -->
      <g transform="translate(19.954687 238.807219)scale(0.1 -0.1)">
       <use xlink:href="#DejaVuSans-8722"/>
       <use x="83.789062" xlink:href="#DejaVuSans-48"/>
       <use x="147.412109" xlink:href="#DejaVuSans-46"/>
       <use x="179.199219" xlink:href="#DejaVuSans-53"/>
       <use x="242.822266" xlink:href="#DejaVuSans-48"/>
      </g>
     </g>
    </g>
    <g id="ytick_4">
     <g id="line2d_10">
      <g>
       <use style="stroke:#000000;stroke-width:0.8;" x="57.6" xlink:href="#maa3a4b3d69" y="204.768"/>
      </g>
     </g>
     <g id="text_10">
      <!-- −0.25 -->
      <g transform="translate(19.954687 208.567219)scale(0.1 -0.1)">
       <use xlink:href="#DejaVuSans-8722"/>
       <use x="83.789062" xlink:href="#DejaVuSans-48"/>
       <use x="147.412109" xlink:href="#DejaVuSans-46"/>
       <use x="179.199219" xlink:href="#DejaVuSans-50"/>
       <use x="242.822266" xlink:href="#DejaVuSans-53"/>
      </g>
     </g>
    </g>
    <g id="ytick_5">
     <g id="line2d_11">
      <g>
       <use style="stroke:#000000;stroke-width:0.8;" x="57.6" xlink:href="#maa3a4b3d69" y="174.528"/>
      </g>
     </g>
     <g id="text_11">
      <!-- 0.00 -->
      <g transform="translate(28.334375 178.327219)scale(0.1 -0.1)">
       <use xlink:href="#DejaVuSans-48"/>
       <use x="63.623047" xlink:href="#DejaVuSans-46"/>
       <use x="95.410156" xlink:href="#DejaVuSans-48"/>
       <use x="159.033203" xlink:href="#DejaVuSans-48"/>
      </g>
     </g>
    </g>
    <g id="ytick_6">
     <g id="line2d_12">
      <g>
       <use style="stroke:#000000;stroke-width:0.8;" x="57.6" xlink:href="#maa3a4b3d69" y="144.288"/>
      </g>
     </g>
     <g id="text_12">
      <!-- 0.25 -->
      <g transform="translate(28.334375 148.087219)scale(0.1 -0.1)">
       <use xlink:href="#DejaVuSans-48"/>
       <use x="63.623047" xlink:href="#DejaVuSans-46"/>
       <use x="95.410156" xlink:href="#DejaVuSans-50"/>
       <use x="159.033203" xlink:href="#DejaVuSans-53"/>
      </g>
     </g>
    </g>
    <g id="ytick_7">
     <g id="line2d_13">
      <g>
       <use style="stroke:#000000;stroke-width:0.8;" x="57.6" xlink:href="#maa3a4b3d69" y="114.048"/>
      </g>
     </g>
     <g id="text_13">
      <!-- 0.50 -->
      <g transform="translate(28.334375 117.847219)scale(0.1 -0.1)">
       <use xlink:href="#DejaVuSans-48"/>
       <use x="63.623047" xlink:href="#DejaVuSans-46"/>
       <use x="95.410156" xlink:href="#DejaVuSans-53"/>
       <use x="159.033203" xlink:href="#DejaVuSans-48"/>
      </g>
     </g>
    </g>
    <g id="ytick_8">
     <g id="line2d_14">
      <g>
       <use style="stroke:#000000;stroke-width:0.8;" x="57.6" xlink:href="#maa3a4b3d69" y="83.808"/>
      </g>
     </g>
     <g id="text_14">
      <!-- 0.75 -->
      <g transform="translate(28.334375 87.607219)scale(0.1 -0.1)">
       <use xlink:href="#DejaVuSans-48"/>
       <use x="63.623047" xlink:href="#DejaVuSans-46"/>
       <use x="95.410156" xlink:href="#DejaVuSans-55"/>
       <use x="159.033203" xlink:href="#DejaVuSans-53"/>
      </g>
     </g>
    </g>
    <g id="ytick_9">
     <g id="line2d_15">
      <g>
       <use style="stroke:#000000;stroke-width:0.8;" x="57.6" xlink:href="#maa3a4b3d69" y="53.568"/>
      </g>
     </g>
     <g id="text_15">
      <!-- 1.00 -->
      <g transform="translate(28.334375 57.367219)scale(0.1 -0.1)">
       <use xlink:href="#DejaVuSans-49"/>
       <use x="63.623047" xlink:href="#DejaVuSans-46"/>
       <use x="95.410156" xlink:href="#DejaVuSans-48"/>
       <use x="159.033203" xlink:href="#DejaVuSans-48"/>
      </g>
     </g>
    </g>
   </g>
   <g id="line2d_16">
    <path clip-path="url(#p0190778dcd)" d="M 73.832727 174.528 
L 82.840337 141.408925 
L 87.534443 124.998294 
L 91.467343 112.030382 
L 94.892772 101.475201 
L 97.937598 92.770931 
L 100.728688 85.42104 
L 103.392911 79.018029 
L 105.803398 73.777224 
L 108.087017 69.323518 
L 110.243769 65.594275 
L 112.273652 62.522791 
L 114.176668 60.0403 
L 115.952817 58.077685 
L 117.602097 56.566915 
L 119.251378 55.36027 
L 120.773791 54.519081 
L 122.296204 53.941535 
L 123.691749 53.644814 
L 125.087294 53.571248 
L 126.482839 53.720972 
L 127.878384 54.093709 
L 129.273929 54.688771 
L 130.796342 55.590189 
L 132.318755 56.752897 
L 133.968036 58.30438 
L 135.617316 60.155508 
L 137.393465 62.478647 
L 139.296481 65.339295 
L 141.326365 68.80346 
L 143.483116 72.936161 
L 145.766736 77.799664 
L 148.177223 83.451427 
L 150.841445 90.280168 
L 153.759403 98.407592 
L 156.931097 107.935899 
L 160.483393 119.356419 
L 164.543161 133.207481 
L 169.491003 150.938107 
L 177.610538 181.022828 
L 185.095735 208.442606 
L 189.789841 224.8119 
L 193.722741 237.733024 
L 197.14817 248.238984 
L 200.192996 256.893344 
L 202.984086 264.192778 
L 205.648309 270.54378 
L 208.058796 275.734588 
L 210.342415 280.138609 
L 212.499167 283.81908 
L 214.52905 286.843217 
L 216.432067 289.280218 
L 218.208215 291.199553 
L 219.857495 292.66954 
L 221.506776 293.834937 
L 223.029189 294.637729 
L 224.424734 295.141858 
L 225.820279 295.423329 
L 227.215824 295.481624 
L 228.611369 295.316636 
L 230.006915 294.928668 
L 231.40246 294.318436 
L 232.924873 293.400574 
L 234.447286 292.221564 
L 236.096566 290.652625 
L 237.872714 288.628311 
L 239.648863 286.262838 
L 241.551879 283.357879 
L 243.581763 279.847811 
L 245.738514 275.668073 
L 248.022134 270.756941 
L 250.559488 264.743524 
L 253.223711 257.837824 
L 256.141669 249.633368 
L 259.313362 240.030636 
L 262.865659 228.539115 
L 266.925427 214.623932 
L 272.000136 196.376512 
L 281.388349 161.557083 
L 287.858604 138.013241 
L 292.425842 122.210645 
L 296.231875 109.818161 
L 299.657304 99.419253 
L 302.702129 90.873132 
L 305.49322 83.68289 
L 308.030574 77.726845 
L 310.441061 72.615057 
L 312.724681 68.289491 
L 314.881432 64.685973 
L 316.911316 61.736487 
L 318.814332 59.371166 
L 320.590481 57.51999 
L 322.239761 56.114199 
L 323.762174 55.087446 
L 325.284587 54.323088 
L 326.680132 53.854377 
L 328.075677 53.608433 
L 329.471222 53.58571 
L 330.866768 53.78625 
L 332.262313 54.209682 
L 333.657858 54.855226 
L 335.180271 55.811362 
L 336.702684 57.028302 
L 338.351964 58.637849 
L 340.128113 60.705216 
L 341.904261 63.112912 
L 343.807277 66.062045 
L 345.837161 69.617853 
L 347.993912 73.844432 
L 350.277532 78.802963 
L 352.814886 84.866115 
L 355.479109 91.820397 
L 358.397067 100.073403 
L 361.568761 109.722941 
L 365.121057 121.258975 
L 369.180825 135.214143 
L 374.255534 153.494328 
L 393.158828 222.438897 
L 397.091728 235.504718 
L 398.487273 239.935831 
L 398.487273 239.935831 
" style="fill:none;stroke:#1f77b4;stroke-dasharray:5.55,2.4;stroke-dashoffset:0;stroke-width:1.5;"/>
   </g>
   <g id="line2d_17">
    <path clip-path="url(#p0190778dcd)" d="M 73.832727 174.528 
L 76.877553 119.881723 
L 78.399966 96.314699 
L 79.668643 79.894377 
L 80.683585 69.323518 
L 81.571659 62.169381 
L 82.332866 57.702244 
L 82.967205 55.201834 
L 83.474675 54.019423 
L 83.855279 53.614831 
L 84.109014 53.575634 
L 84.36275 53.720972 
L 84.743353 54.28442 
L 85.123956 55.260574 
L 85.631427 57.198106 
L 86.265766 60.624757 
L 87.026972 66.165863 
L 87.915046 74.502682 
L 88.929988 86.305614 
L 90.198666 104.043198 
L 91.721079 128.79937 
L 94.004698 170.159403 
L 97.303259 229.491152 
L 98.825672 253.012111 
L 100.094349 269.382602 
L 101.109291 279.907444 
L 101.997365 287.017777 
L 102.758572 291.445388 
L 103.392911 293.911875 
L 103.900382 295.066737 
L 104.280985 295.450537 
L 104.53472 295.47585 
L 104.788456 295.316636 
L 105.169059 294.732431 
L 105.67653 293.312265 
L 106.184001 291.167467 
L 106.81834 287.487801 
L 107.579546 281.655149 
L 108.46762 272.999874 
L 109.482562 260.868814 
L 110.751239 242.786372 
L 112.273652 217.729055 
L 114.684139 173.817099 
L 117.602097 121.360214 
L 119.12451 97.581829 
L 120.393188 80.931834 
L 121.40813 70.14836 
L 122.296204 62.791511 
L 123.05741 58.141228 
L 123.691749 55.483488 
L 124.19922 54.173207 
L 124.579823 53.672055 
L 124.833559 53.568354 
L 125.087294 53.6492 
L 125.467897 54.116146 
L 125.8485 54.996375 
L 126.355971 56.807473 
L 126.99031 60.079523 
L 127.751517 65.442093 
L 128.639591 73.583333 
L 129.654533 85.183953 
L 130.796342 100.820434 
L 132.318755 125.109036 
L 134.475507 163.795988 
L 138.154671 230.123475 
L 139.677084 253.551696 
L 140.945761 269.8221 
L 141.960703 280.254635 
L 142.848778 287.277177 
L 143.609984 291.625622 
L 144.244323 294.024201 
L 144.751794 295.123935 
L 145.132397 295.46614 
L 145.386132 295.463686 
L 145.639868 295.276722 
L 146.020471 294.651021 
L 146.527942 293.175986 
L 147.035413 290.977149 
L 147.669752 287.231605 
L 148.430958 281.323178 
L 149.319032 272.585322 
L 150.333974 260.369441 
L 151.602652 242.198297 
L 153.125064 217.064294 
L 155.662419 170.744307 
L 158.45351 120.722588 
L 159.975922 97.034639 
L 161.2446 80.483125 
L 162.259542 69.790924 
L 163.147616 62.521164 
L 163.908822 57.949609 
L 164.543161 55.359531 
L 165.050632 54.10426 
L 165.431235 53.644661 
L 165.684971 53.568723 
L 165.938706 53.677331 
L 166.319309 54.185827 
L 166.699913 55.107367 
L 167.207384 56.972929 
L 167.841722 60.311601 
L 168.602929 65.751145 
L 169.491003 73.976756 
L 170.505945 85.664726 
L 171.774622 103.280859 
L 173.297035 127.929885 
L 175.580654 169.219469 
L 178.879216 228.65153 
L 180.401628 252.293954 
L 181.670306 268.796012 
L 182.685248 279.442438 
L 183.573322 286.66856 
L 184.334528 291.200691 
L 184.968867 293.756905 
L 185.476338 294.984653 
L 185.856941 295.42347 
L 186.110677 295.485525 
L 186.364412 295.363037 
L 186.745015 294.833773 
L 187.125619 293.89159 
L 187.63309 291.998819 
L 188.267428 288.626879 
L 189.028635 283.14892 
L 189.916709 274.881228 
L 190.931651 263.149735 
L 192.200328 245.487585 
L 193.722741 220.797897 
L 196.00636 179.481399 
L 199.304922 120.08682 
L 200.827335 96.490125 
L 202.096012 80.037665 
L 203.110954 69.437106 
L 203.999028 62.254686 
L 204.760234 57.762017 
L 205.394573 55.23969 
L 205.902044 54.039474 
L 206.282647 53.621443 
L 206.536383 53.573271 
L 206.790118 53.709637 
L 207.170722 54.259665 
L 207.551325 55.222484 
L 208.058796 57.142446 
L 208.693134 60.547625 
L 209.454341 66.063953 
L 210.342415 74.373654 
L 211.357357 86.148569 
L 212.626034 103.856584 
L 214.148447 128.586722 
L 216.432067 169.929777 
L 219.730628 229.286361 
L 221.253041 252.837122 
L 222.521718 269.239842 
L 223.53666 279.794443 
L 224.424734 286.9331 
L 225.185941 291.386267 
L 225.820279 293.874686 
L 226.32775 295.047359 
L 226.708353 295.4446 
L 226.962089 295.478889 
L 227.215824 295.328645 
L 227.596428 294.757858 
L 227.977031 293.774412 
L 228.484502 291.827275 
L 229.11884 288.388886 
L 229.880047 282.834237 
L 230.768121 274.4826 
L 231.783063 262.664363 
L 233.05174 244.910636 
L 234.574153 220.140263 
L 236.857773 178.771008 
L 240.029466 121.566707 
L 241.551879 97.759265 
L 242.820556 81.077561 
L 243.835498 70.264665 
L 244.723572 62.87972 
L 245.484779 58.204025 
L 246.119118 55.524434 
L 246.626589 54.196381 
L 247.007192 53.681802 
L 247.260927 53.569128 
L 247.514663 53.641 
L 247.895266 54.094512 
L 248.275869 54.961382 
L 248.78334 56.754863 
L 249.417679 60.005354 
L 250.178885 65.343005 
L 251.066959 73.456912 
L 252.081901 85.029213 
L 253.223711 100.638372 
L 254.746124 124.899394 
L 256.902875 163.56713 
L 260.58204 229.9193 
L 262.104453 253.377585 
L 263.37313 269.680401 
L 264.388072 280.142812 
L 265.276146 287.193757 
L 266.037353 291.567807 
L 266.671691 293.988345 
L 267.179162 295.105903 
L 267.559766 295.461554 
L 267.813501 295.468075 
L 268.067236 295.290079 
L 268.44784 294.677789 
L 268.955311 293.220483 
L 269.462782 291.039105 
L 270.09712 287.314841 
L 270.858327 281.430884 
L 271.746401 272.719688 
L 272.761343 260.531178 
L 274.03002 242.388636 
L 275.552433 217.279325 
L 278.089788 170.973985 
L 280.880878 120.928484 
L 282.403291 97.211214 
L 283.671968 80.627806 
L 284.68691 69.906062 
L 285.574985 62.608125 
L 286.336191 58.011106 
L 286.97053 55.399147 
L 287.478001 54.126091 
L 287.858604 53.653059 
L 288.112339 53.568147 
L 288.366075 53.667782 
L 288.746678 54.162849 
L 289.127281 55.07104 
L 289.634752 56.919005 
L 290.269091 60.236155 
L 291.030297 65.650839 
L 291.918372 73.84921 
L 292.933313 85.508991 
L 294.075123 101.202496 
L 295.597536 125.548561 
L 297.754288 164.275295 
L 301.433452 230.550326 
L 302.955865 253.915324 
L 304.224542 270.117674 
L 305.239484 280.487532 
L 306.127558 287.450523 
L 306.888765 291.745304 
L 307.523103 294.097878 
L 308.030574 295.160281 
L 308.411178 295.47433 
L 308.664913 295.453083 
L 308.918649 295.247343 
L 309.299252 294.59357 
L 309.806723 293.081429 
L 310.314194 290.846064 
L 310.948532 287.05601 
L 311.709739 281.096415 
L 312.597813 272.302841 
L 313.612755 260.029796 
L 314.881432 241.798977 
L 316.530713 214.390789 
L 319.194936 165.545844 
L 321.73229 120.292113 
L 323.254703 96.665833 
L 324.523381 80.181294 
L 325.538322 69.551073 
L 326.426397 62.340395 
L 327.187603 57.822211 
L 327.821942 55.277975 
L 328.329413 54.059959 
L 328.710016 53.628491 
L 328.963751 53.571344 
L 329.217487 53.698739 
L 329.59809 54.235344 
L 329.978693 55.184824 
L 330.486164 57.08721 
L 331.120503 60.470905 
L 331.881709 65.962434 
L 332.769784 74.244986 
L 333.784726 85.991843 
L 335.053403 103.670226 
L 336.575816 128.374239 
L 338.859435 169.700167 
L 342.157996 229.081372 
L 343.680409 252.66185 
L 344.949087 269.096741 
L 345.964029 279.681062 
L 346.852103 286.848017 
L 347.613309 291.326725 
L 348.247648 293.837067 
L 348.755119 295.027546 
L 349.135722 295.438227 
L 349.389458 295.481491 
L 349.643193 295.340218 
L 350.023796 294.78285 
L 350.404399 293.812738 
L 350.91187 291.883166 
L 351.546209 288.466243 
L 352.307416 282.936361 
L 353.19549 274.611826 
L 354.210432 262.821583 
L 355.479109 245.097389 
L 357.001522 220.353002 
L 359.285141 179.000643 
L 362.583702 119.657615 
L 364.106115 96.123142 
L 365.374793 79.73804 
L 366.389735 69.19971 
L 367.277809 62.076541 
L 368.039015 57.637348 
L 368.673354 55.160922 
L 369.180825 53.997989 
L 369.561428 53.608099 
L 369.815164 53.578719 
L 370.068899 53.733869 
L 370.449502 54.311994 
L 370.830106 55.30273 
L 371.337576 57.259471 
L 371.971915 60.709593 
L 372.733122 66.27778 
L 373.621196 74.644226 
L 374.636138 86.477754 
L 375.904815 104.247606 
L 377.427228 129.032153 
L 379.710847 170.410585 
L 382.882541 227.602247 
L 384.404954 251.393809 
L 385.673631 268.058178 
L 386.688573 278.854988 
L 387.576647 286.224571 
L 388.337854 290.886371 
L 388.972192 293.554012 
L 389.479663 294.872347 
L 389.860266 295.379583 
L 390.114002 295.487349 
L 390.367737 295.41057 
L 390.748341 294.94971 
L 391.128944 294.075534 
L 391.636415 292.272417 
L 392.270753 289.010134 
L 393.03196 283.658853 
L 393.920034 275.529994 
L 394.934976 263.9422 
L 396.076786 248.318092 
L 397.599199 224.041975 
L 398.487273 208.538396 
L 398.487273 208.538396 
" style="fill:none;stroke:#ff7f0e;stroke-dasharray:5.55,2.4;stroke-dashoffset:0;stroke-width:1.5;"/>
   </g>
   <g id="line2d_18">
    <defs>
     <path d="M 0 3 
C 0.795609 3 1.55874 2.683901 2.12132 2.12132 
C 2.683901 1.55874 3 0.795609 3 0 
C 3 -0.795609 2.683901 -1.55874 2.12132 -2.12132 
C 1.55874 -2.683901 0.795609 -3 0 -3 
C -0.795609 -3 -1.55874 -2.683901 -2.12132 -2.12132 
C -2.683901 -1.55874 -3 -0.795609 -3 0 
C -3 0.795609 -2.683901 1.55874 -2.12132 2.12132 
C -1.55874 2.683901 -0.795609 3 0 3 
z
" id="m6af9046854" style="stroke:#2ca02c;"/>
    </defs>
    <g clip-path="url(#p0190778dcd)">
     <use style="fill:#2ca02c;stroke:#2ca02c;" x="73.832727" xlink:href="#m6af9046854" y="174.528"/>
     <use style="fill:#2ca02c;stroke:#2ca02c;" x="175.865817" xlink:href="#m6af9046854" y="174.528"/>
     <use style="fill:#2ca02c;stroke:#2ca02c;" x="277.898908" xlink:href="#m6af9046854" y="174.528"/>
     <use style="fill:#2ca02c;stroke:#2ca02c;" x="379.931998" xlink:href="#m6af9046854" y="174.528"/>
     <use style="fill:#2ca02c;stroke:#2ca02c;" x="124.849272" xlink:href="#m6af9046854" y="53.568"/>
     <use style="fill:#2ca02c;stroke:#2ca02c;" x="226.882363" xlink:href="#m6af9046854" y="295.488"/>
     <use style="fill:#2ca02c;stroke:#2ca02c;" x="328.915453" xlink:href="#m6af9046854" y="53.568"/>
    </g>
   </g>
   <g id="patch_2">
    <path d="M 57.6 307.584 
L 57.6 41.472 
" style="fill:none;stroke:#000000;stroke-linecap:square;stroke-linejoin:miter;stroke-width:0.8;"/>
   </g>
   <g id="patch_3">
    <path d="M 414.72 307.584 
L 414.72 41.472 
" style="fill:none;stroke:#000000;stroke-linecap:square;stroke-linejoin:miter;stroke-width:0.8;"/>
   </g>
   <g id="patch_4">
    <path d="M 57.6 307.584 
L 414.72 307.584 
" style="fill:none;stroke:#000000;stroke-linecap:square;stroke-linejoin:miter;stroke-width:0.8;"/>
   </g>
   <g id="patch_5">
    <path d="M 57.6 41.472 
L 414.72 41.472 
" style="fill:none;stroke:#000000;stroke-linecap:square;stroke-linejoin:miter;stroke-width:0.8;"/>
   </g>
  </g>
 </g>
 <defs>
  <clipPath id="p0190778dcd">
   <rect height="266.112" width="357.12" x="57.6" y="41.472"/>
  </clipPath>
 </defs>
</svg>
