<?xml version="1.0" encoding="UTF-8" standalone="no"?>
<!-- Created with Inkscape (http://www.inkscape.org/) -->

<svg
   xmlns:dc="http://purl.org/dc/elements/1.1/"
   xmlns:cc="http://creativecommons.org/ns#"
   xmlns:rdf="http://www.w3.org/1999/02/22-rdf-syntax-ns#"
   xmlns:svg="http://www.w3.org/2000/svg"
   xmlns="http://www.w3.org/2000/svg"
   xmlns:sodipodi="http://sodipodi.sourceforge.net/DTD/sodipodi-0.dtd"
   xmlns:inkscape="http://www.inkscape.org/namespaces/inkscape"
   width="106.39323mm"
   height="81.798744mm"
   viewBox="0 0 106.39323 81.798744"
   version="1.1"
   id="svg4747"
   inkscape:version="0.92.3 (2405546, 2018-03-11)"
   sodipodi:docname="ecg.svg">
  <defs
     id="defs4741" />
  <sodipodi:namedview
     id="base"
     pagecolor="#ffffff"
     bordercolor="#666666"
     borderopacity="1.0"
     inkscape:pageopacity="0.0"
     inkscape:pageshadow="2"
     inkscape:zoom="0.35"
     inkscape:cx="788.20092"
     inkscape:cy="451.72316"
     inkscape:document-units="mm"
     inkscape:current-layer="layer1"
     showgrid="false"
     fit-margin-top="0"
     fit-margin-left="0"
     fit-margin-right="0"
     fit-margin-bottom="0"
     inkscape:window-width="1600"
     inkscape:window-height="837"
     inkscape:window-x="-8"
     inkscape:window-y="-8"
     inkscape:window-maximized="1" />
  <metadata
     id="metadata4744">
    <rdf:RDF>
      <cc:Work
         rdf:about="">
        <dc:format>image/svg+xml</dc:format>
        <dc:type
           rdf:resource="http://purl.org/dc/dcmitype/StillImage" />
        <dc:title></dc:title>
      </cc:Work>
    </rdf:RDF>
  </metadata>
  <g
     inkscape:label="Layer 1"
     inkscape:groupmode="layer"
     id="layer1"
     transform="translate(301.14899,-95.838724)">
    <g
       transform="matrix(0.26458333,0,0,0.26458333,-124.35417,15.880209)"
       style="font-style:normal;font-weight:normal;font-size:12px;font-family:Dialog;color-interpolation:linearRGB;fill:#262626;fill-opacity:1;stroke:#262626;stroke-width:0.66670001;stroke-linecap:square;stroke-linejoin:round;stroke-miterlimit:10;stroke-dasharray:none;stroke-dashoffset:0;stroke-opacity:1;color-rendering:optimizeQuality;image-rendering:optimizeQuality;shape-rendering:auto;text-rendering:geometricPrecision"
       id="g148">
      <line
         y2="31"
         style="fill:none"
         x1="73"
         x2="73"
         y1="374"
         id="line104" />
      <line
         y2="31"
         style="fill:none"
         x1="507"
         x2="507"
         y1="374"
         id="line106" />
      <line
         y2="374"
         style="fill:none"
         x1="73"
         x2="77.339996"
         y1="374"
         id="line108" />
      <line
         y2="335.88889"
         style="fill:none"
         x1="73"
         x2="77.339996"
         y1="335.88889"
         id="line110" />
      <line
         y2="297.7778"
         style="fill:none"
         x1="73"
         x2="77.339996"
         y1="297.7778"
         id="line112" />
      <line
         y2="259.66669"
         style="fill:none"
         x1="73"
         x2="77.339996"
         y1="259.66669"
         id="line114" />
      <line
         y2="221.5556"
         style="fill:none"
         x1="73"
         x2="77.339996"
         y1="221.5556"
         id="line116" />
      <line
         y2="183.4444"
         style="fill:none"
         x1="73"
         x2="77.339996"
         y1="183.4444"
         id="line118" />
      <line
         y2="145.3333"
         style="fill:none"
         x1="73"
         x2="77.339996"
         y1="145.3333"
         id="line120" />
      <line
         y2="107.2222"
         style="fill:none"
         x1="73"
         x2="77.339996"
         y1="107.2222"
         id="line122" />
      <line
         y2="69.111099"
         style="fill:none"
         x1="73"
         x2="77.339996"
         y1="69.111099"
         id="line124" />
      <line
         y2="31"
         style="fill:none"
         x1="73"
         x2="77.339996"
         y1="31"
         id="line126" />
      <line
         y2="374"
         style="fill:none"
         x1="507"
         x2="502.66"
         y1="374"
         id="line128" />
      <line
         y2="335.88889"
         style="fill:none"
         x1="507"
         x2="502.66"
         y1="335.88889"
         id="line130" />
      <line
         y2="297.7778"
         style="fill:none"
         x1="507"
         x2="502.66"
         y1="297.7778"
         id="line132" />
      <line
         y2="259.66669"
         style="fill:none"
         x1="507"
         x2="502.66"
         y1="259.66669"
         id="line134" />
      <line
         y2="221.5556"
         style="fill:none"
         x1="507"
         x2="502.66"
         y1="221.5556"
         id="line136" />
      <line
         y2="183.4444"
         style="fill:none"
         x1="507"
         x2="502.66"
         y1="183.4444"
         id="line138" />
      <line
         y2="145.3333"
         style="fill:none"
         x1="507"
         x2="502.66"
         y1="145.3333"
         id="line140" />
      <line
         y2="107.2222"
         style="fill:none"
         x1="507"
         x2="502.66"
         y1="107.2222"
         id="line142" />
      <line
         y2="69.111099"
         style="fill:none"
         x1="507"
         x2="502.66"
         y1="69.111099"
         id="line144" />
      <line
         y2="31"
         style="fill:none"
         x1="507"
         x2="502.66"
         y1="31"
         id="line146" />
    </g>
    <g
       transform="matrix(0.26458333,0,0,0.26458333,-320.37545,87.57142)"
       style="font-style:normal;font-weight:normal;font-size:12px;font-family:Dialog;color-interpolation:linearRGB;fill:#0072bd;fill-opacity:1;stroke:#0072bd;stroke-width:0.66670001;stroke-linecap:butt;stroke-linejoin:round;stroke-miterlimit:10;stroke-dasharray:none;stroke-dashoffset:0;stroke-opacity:1;color-rendering:optimizeQuality;image-rendering:optimizeQuality;shape-rendering:auto;text-rendering:geometricPrecision"
       id="g192">
      <path
         inkscape:connector-curvature="0"
         d="m 73,283.4861 0.4019,-9.9015 0.4018,-0.9528 0.4019,9.9015 0.4018,13.7127 0.4019,0.9528 0.4018,-10.8543 0.4019,-14.6655 0.4018,-0.9528 0.4019,10.8544 0.4018,14.6654 0.4019,2.8583 0.4018,-9.9015 0.4019,-13.7127 0.4018,-1.9055 0.4019,6.0904 0.4018,9.9016 0.4019,5.7166 0.4018,-7.0432 0.4019,-6.0905 0.4018,-0.9527 0.4019,7.0432 0.4018,10.8543 0.4019,1.9056 0.4018,-7.0432 0.4019,-11.8072 0.4019,-2.8583 0.4018,4.1849 0.4019,8.9488 h 0.4018 l 0.4019,-5.1377 0.4018,-6.0904 0.4019,1.9055 0.4018,7.0432 0.4019,7.9961 h 0.4018 l 0.4019,-6.0905 0.4018,-10.8543 h 0.4019 l 0.4018,7.0432 0.4019,8.9488 0.4018,3.8111 0.4019,-6.0905 0.4018,-9.9015 0.4019,-2.8584 0.4018,6.0905 0.4019,14.6654 0.4018,2.8584 0.4019,-10.8544 0.4018,-8.9487 0.4019,-1.9056 0.4018,14.6655 0.4019,11.8071 0.4018,1.9055 0.4019,-17.5238 0.4019,-15.6182 0.4018,-1.9055 0.4019,12.7598 0.4018,11.8072 0.4019,3.8111 0.4018,-8.9488 0.4019,-13.7127 0.4018,-2.8583 0.4019,8.9488 0.4018,9.9015 0.4019,-0.9527 0.4018,-7.9961 0.4019,-8.9487 0.4018,-2.8584 0.4019,5.1377 0.4018,4.1849 0.4019,1.9056 0.4018,-4.1849 0.4019,-7.0433 0.4018,-0.9527 0.4019,5.1376 0.4018,6.0905 0.4019,-2.8584 0.4018,-9.9015 0.4019,-8.9488 0.4018,-1.9055 0.4019,0.3737 0.4019,9.9016 0.4018,2.8583 0.4019,-7.0432 0.4018,-7.996 0.4019,-2.8583 0.4018,10.8543 0.4019,7.0432 0.4018,4.7639 0.4019,-10.8543 0.4018,-8.9488 0.4019,-3.8111 0.4018,4.1849 0.4019,8.9487 0.4018,6.6695 0.4019,-4.1849 0.4018,-3.2321 0.4019,2.8583 0.4018,9.9016 0.4019,13.7127 0.4018,-0.9528 0.4019,-4.1849 0.4018,-7.996 0.4019,-0.9528 0.4018,4.1849 0.4019,7.996 0.4018,-0.9528 0.4019,-8.9487 0.4018,-4.185 0.4019,2.8584 0.4019,8.9488 0.4018,7.996 0.4019,-3.8111 0.4018,-8.9488 0.4019,-7.0433 0.4018,1.9056 0.4019,10.8543 0.4018,8.9488 0.4019,1.9056 0.4018,-9.9016 0.4019,-9.9015 0.4018,-0.9528 0.4019,8.9488 0.4018,13.7126 h 0.4019 l 0.4018,-9.9015 0.4019,-8.9488 0.4018,7.6222 0.4019,13.7127 0.4018,7.0432 0.4019,0.9528 0.4018,-3.2321 0.4019,6.2956 0.4018,9.5278 0.4019,8.9488 0.4019,0.3738 0.4018,-16.1972 0.4019,-30.8627 0.4018,-37.5321 0.4019,-41.9222 0.4018,-43.454 0.4019,-39.6429 0.4018,-38.1111 0.4019,-20.3822 0.4018,11.0596 0.4019,58.1194 0.4018,76.596 0.4019,69.9266 0.4018,32.3944 0.4019,-0.3737 0.4018,-9.9016 0.4019,-7.6222 0.4018,2.2793 0.4019,4.1849 0.4018,-0.9528 0.4019,-8.9487 0.4018,-10.8544 0.4019,-5.7167 0.4018,6.0905 0.4019,7.0432 0.4019,3.8111 0.4018,-7.996 0.4018,-8.9488 h 0.4019 l 0.4019,10.8544 0.4018,14.6654 0.4019,0.9528 0.4018,-13.7127 0.4019,-12.7599 0.4018,-5.7166 0.4019,9.9016 0.4018,9.9015 0.4019,1.9056 0.4018,-10.8544 0.4019,-7.0432 0.4018,2.8583 0.4019,8.9488 0.4018,4.1849 0.4019,-1.9055 0.4018,-6.0905 0.4019,-9.9016 0.4018,-2.8583 0.4019,8.9488 0.4019,8.9488 0.4018,0.9528 0.4018,-7.996 0.4019,-10.8544 0.4018,0.9528 0.4019,14.6654 0.4019,14.6655 0.4018,-2.8584 0.4019,-14.6654 0.4018,-10.8543 0.4019,-2.8584 0.4018,7.0433 0.4019,8.9487 0.4018,5.7167 0.4019,-4.1849 0.4018,-7.0432 0.4019,-3.8111 0.4018,8.9487 0.4019,9.9016 0.4018,-2.8583 0.4019,-15.6182 0.4018,-12.7599 0.4019,-4.7639 0.4018,11.8071 0.4019,10.8543 0.4018,0.9528 0.4019,-6.0904 0.4018,-8.9488 0.4019,-0.9528 0.4018,7.996 0.4019,8.9488 0.4018,3.8111 0.4019,-8.9488 0.4019,-11.8071 0.4018,-7.6222 0.4019,8.9488 0.4018,13.7126 0.4018,3.8111 0.4019,-11.8071 0.4019,-11.8071 0.4018,-2.8583 0.4019,9.9015 0.4018,10.8544 0.4019,4.7639 0.4018,-3.2321 0.4019,-7.9961 0.4018,-1.9055 0.4019,7.996 0.4018,10.8543 h 0.4019 l 0.4018,-9.9015 0.4019,-11.8071 0.4018,-3.8112 0.4019,7.996 0.4018,9.9016 0.4019,-0.9528 0.4018,-7.996 0.4019,-12.7599 0.4018,-3.8111 0.4019,7.0433 0.4018,8.9487 h 0.4019 l 0.4019,-11.8071 0.4018,-10.8543 0.4019,-1.9056 0.4018,3.2321 0.4019,7.0433 0.4018,5.7166 0.4019,-8.9488 0.4018,-13.7126 0.4019,-7.6222 0.4018,6.0904 0.4019,11.8071 0.4018,5.7167 0.4019,-6.0905 0.4018,-8.9487 0.4019,-6.6695 0.4018,1.3266 0.4019,6.0904 0.4018,6.6695 0.4019,-8.9488 0.4018,-9.9016 0.4019,-0.9528 0.4018,8.9488 0.4019,11.8071 0.4018,-1.9055 0.4019,-14.6655 0.4019,-12.7599 0.4018,0.9528 0.4019,8.9488 0.4018,11.8071 0.4019,1.9056 0.4018,-4.1849 0.4019,-6.0905 0.4018,-2.8583 0.4019,6.0905 0.4018,9.9015 h 0.4019 l 0.4018,-4.1849 0.4019,-11.8071 0.4018,-5.7167 0.4019,4.1849 0.4018,11.8071 0.4019,3.8112 0.4018,-4.1849 0.4019,-7.0433 0.4018,-4.7639 0.4019,6.0905 0.4018,8.9488 0.4019,0.9528 0.4018,-6.0905 0.4019,-7.0432 0.4019,-0.9528 0.4018,3.2321 0.4019,12.7599 0.4018,2.8583 0.4019,-7.0432 0.4018,-12.7599 0.4019,-4.7639 0.4018,7.0433 0.4019,15.6182 0.4018,3.8111 0.4019,-7.0432 0.4018,-9.9016 0.4019,-0.9528 0.4018,7.996 0.4019,5.1377 0.4018,-3.8111 0.4019,-4.1849 0.4018,-5.1377 0.4019,-1.9055 0.4018,7.0432 0.4019,12.7599 0.4018,1.9055 0.4019,-13.7126 0.4019,-16.571 0.4018,-7.6222 0.4018,8.9487 0.4019,12.7599 h 0.4018 L 203.2,236.8 l 0.4019,-9.9016 0.4018,1.9056 0.4019,9.9016 0.4018,7.996 h 0.4019 l 0.4018,-9.9016 0.4019,-6.0905 0.4018,-1.9055 0.4019,7.0432 0.4018,3.2321 0.4019,-6.6694 0.4018,-12.7599 0.4019,-11.8071 0.4018,-0.9528 0.4019,6.0905 0.4018,9.9015 h 0.4019 l 0.4018,-8.9488 0.4019,-10.8543 0.4018,-1.9056 0.4019,5.1377 0.4018,10.8544 0.4019,4.7638 0.4018,1.5318 0.4019,-6.0904 0.4018,0.9527 0.4019,6.0905 0.4019,5.1377 0.4018,-5.7167 0.4019,-14.6655 0.4018,-14.6654 h 0.4018 l 0.4019,14.6654 0.4019,12.7599 0.4018,6.6695 0.4019,-6.0905 0.4018,-5.1376 0.4019,2.8583 0.4018,9.9016 0.4019,9.9015 0.4018,2.8583 0.4019,-2.2793 0.4018,-10.8543 0.4019,-4.7639 0.4018,2.2793 0.4019,10.8544 0.4019,7.6222 0.4018,-4.1849 0.4018,-11.8071 0.4019,-1.9056 0.4018,7.996 0.4019,14.6655 0.4019,2.8583 0.4018,-7.0432 0.4018,-10.8544 0.4019,-4.7639 0.4018,7.0433 0.4019,8.9488 0.4019,-1.9056 0.4018,-9.9016 0.4019,-8.9487 0.4018,1.9055 0.4019,11.8071 0.4018,8.9488 h 0.4019 l 0.4018,-10.8543 0.4019,-11.8071 0.4018,-1.9056 0.4019,10.8543 0.4018,18.4766 0.4019,7.6222 0.4018,-3.2321 0.4019,-7.0432 0.4018,6.6694 0.4019,12.7599 0.4019,5.1377 0.4018,-19.0556 0.4018,-28.0043 0.4019,-30.8627 0.4018,-26.6777 0.4019,-26.304 0.4019,-38.6902 0.4018,-38.1111 0.4019,-28.9571 0.4018,-7.0432 0.4018,25.725 0.4019,62.3043 0.4019,76.596 0.4018,52.4028 0.4019,17.729 0.4018,-7.996 0.4019,-14.2917 0.4018,-2.4845 0.4019,10.8543 0.4018,3.8111 0.4019,-7.996 0.4018,-9.9015 0.4019,-5.7167 0.4018,6.0905 0.4019,7.996 h 0.4018 l 0.4019,-3.2321 0.4018,-5.1377 0.4019,-0.9528 0.4019,6.0905 0.4018,7.996 0.4019,-1.9056 0.4018,-7.0432 0.4018,-7.996 h 0.4019 l 0.4019,9.9015 0.4018,7.0433 0.4019,-2.8584 0.4018,-8.9488 0.4018,-7.0432 0.4019,-1.9056 0.4019,7.0433 0.4018,10.8543 0.4019,0.9528 0.4018,-7.0432 0.4019,-6.0905 h 0.4018 l 0.4019,7.0433 0.4018,7.0432 0.4019,0.9528 0.4018,-7.996 0.4019,-7.9961 0.4018,-0.9527 0.4019,10.8543 0.4019,10.8543 0.4018,1.9056 0.4018,-8.9488 0.4019,-11.8071 0.4019,-3.8111 0.4018,7.0432 0.4019,8.9488 0.4018,0.9528 0.4018,-7.996 0.4019,-8.9488 0.4019,-0.9528 0.4018,6.0905 0.4019,12.7599 0.4018,-0.9528 0.4019,-7.996 0.4018,-9.9016 0.4019,-0.9528 0.4018,9.9016 0.4019,8.9488 h 0.4018 l 0.4019,-7.0432 0.4018,-8.9488 0.4019,-4.7639 0.4018,9.9015 0.4019,8.9488 0.4018,-0.9528 0.4019,-7.996 0.4018,-8.9488 h 0.4019 l 0.4019,9.9016 0.4018,9.9016 0.4018,0.9528 0.4019,-6.0905 0.4018,-8.9488 h 0.4019 l 0.4019,8.9488 0.4018,11.8071 0.4019,-2.8583 0.4018,-7.0432 0.4019,-9.9016 h 0.4018 l 0.4019,7.996 0.4018,9.9016 0.4019,1.9055 0.4018,-7.0432 0.4019,-7.996 0.4018,-5.7167 0.4019,4.1849 0.4018,9.9016 0.4019,0.9528 0.4018,-9.9016 0.4019,-9.9016 0.4018,-1.9055 0.4019,12.7599 0.4018,13.7126 h 0.4019 l 0.4018,-8.9487 0.4019,-11.8072 0.4018,1.9056 0.4019,4.1849 0.4018,9.9016 0.4019,0.9527 0.4019,-6.0904 0.4018,-8.9488 0.4019,-3.8111 0.4018,7.996 0.4019,5.1377 h 0.4018 l 0.4019,-9.9016 0.4018,-12.7599 0.4019,-6.6694 0.4018,9.9015 0.4019,8.9488 0.4018,1.9056 0.4019,-8.9488 0.4018,-11.8071 0.4019,-6.6695 0.4018,7.996 0.4019,14.6655 0.4018,1.9055 0.4019,-8.9488 0.4019,-7.0432 0.4018,0.9528 0.4018,11.8071 0.4019,8.9488 0.4018,-3.8111 0.4019,-9.9016 0.4019,-11.8071 0.4018,0.9528 0.4019,9.9015 0.4018,6.0905 0.4018,3.8111 0.4019,-6.0904 0.4019,-6.0905 0.4018,-0.9528 0.4019,7.996 0.4018,7.996 0.4019,1.9056 0.4018,-12.7599 0.4019,-8.9488 0.4018,-1.9055 0.4019,7.996 0.4018,11.8071 0.4019,0.9528 0.4018,-7.0433 0.4019,-7.0432 0.4018,-1.9055 0.4019,8.9487 0.4018,13.7127 0.4019,-1.9056 0.4018,-6.0904 0.4019,-7.996 0.4019,-0.9528 0.4018,8.9488 0.4019,7.996 0.4018,1.9056 0.4019,-9.9016 0.4018,-7.0432 0.4019,-3.8111 0.4018,7.996 0.4019,10.8543 0.4018,0.9528 0.4019,-6.0905 0.4018,-8.9488 0.4019,0.9528 0.4018,9.9016 0.4019,9.9016 0.4018,0.9527 0.4019,-7.996 0.4018,-7.996 0.4019,-1.9055 0.4018,8.9488 0.4019,8.9487 0.4018,-0.9527 0.4019,-10.8544 0.4018,-8.9488 h 0.4019 l 0.4018,10.8544 0.4019,10.8543 h 0.4019 l 0.4018,-7.0432 0.4019,-8.9488 h 0.4018 l 0.4018,7.996 0.4019,7.996 0.4019,-3.8111 0.4018,-9.9016 0.4019,-8.9488 0.4018,-0.9527 0.4019,7.0432 0.4018,7.0432 0.4019,0.9528 0.4018,-6.0904 0.4019,-10.8544 0.4018,-2.8583 0.4019,8.9488 0.4018,7.0432 0.4019,1.9055 0.4018,-10.8543 0.4019,-11.8071 h 0.4018 l 0.4019,8.9488 0.4018,9.9015 0.4019,2.8584 0.4019,-8.9488 0.4018,-7.996 0.4018,-2.8583 0.4019,9.9015 0.4018,11.8071 0.4019,-1.9055 0.4019,-9.9016 0.4018,-14.6654 0.4019,-2.8584 0.4018,12.7599 0.4019,13.7127 0.4018,6.6694 0.4019,-3.2321 0.4018,-9.9015 0.4019,2.8583 0.4018,7.996 0.4019,11.8071 0.4018,2.8583 0.4019,-5.1376 0.4018,-8.9488 0.4019,-1.9056 0.4018,11.8072 0.4019,10.8543 0.4018,4.7639 0.4019,-7.996 0.4018,-10.8544 h 0.4019 l 0.4018,9.9016 0.4019,9.9015 0.4018,3.8112 0.4019,-11.8072 0.4018,-7.996 h 0.4019 l 0.4019,8.9488 0.4018,10.8544 0.4019,-1.9056 0.4018,-7.996 0.4019,-10.8543 0.4018,3.8111 0.4019,7.996 0.4018,8.9488 0.4019,1.9055 0.4018,-8.9487 0.4019,-11.8072 0.4018,1.9056 0.4019,7.996 0.4018,11.8071 0.4019,7.6222 0.4018,-1.3265 0.4019,-4.1849 0.4018,0.9527 0.4019,14.6655 0.4019,16.571 0.4018,5.7167 0.4018,-13.7127 0.4019,-28.9571 0.4018,-25.725 0.4019,-18.6818 0.4019,-20.5873 0.4018,-40.9695 0.4019,-55.6349 0.4018,-46.1071 0.4018,-27.6305 0.4019,5.1376 0.4019,36.5794 0.4018,54.3083 0.4019,59.6512 0.4018,52.9818 0.4019,38.1111 0.4018,21.3349 0.4019,12.7599 0.4018,-2.8583 0.4019,-13.7127 0.4018,-15.6182 0.4019,-10.4806 0.4018,4.1849 0.4019,10.8544 0.4018,0.9527 0.4019,-8.9487 0.4018,-9.9016 0.4019,-1.9056 0.4018,8.9488 0.4019,9.9016 0.4019,1.9055 0.4018,-6.0904 0.4019,-9.9016 0.4018,-1.9055 0.4019,8.9488 0.4018,10.8543 0.4019,2.8583 0.4018,-7.996 0.4019,-9.9016 0.4018,-1.9055 0.4019,7.0432 0.4018,11.8071 0.4019,3.8111 0.4018,-9.9015 0.4019,-9.9016 0.4018,-2.8583 0.4019,9.9015 0.4018,10.8544 0.4019,-0.9528 0.4018,-8.9488 0.4019,-7.0432 0.4019,-2.8583 0.4018,7.0432 0.4018,7.996 0.4019,5.7167 0.4018,-10.8544 0.4019,-10.8543 h 0.4019 l 0.4018,9.9015 0.4018,8.9488 0.4019,3.8111 0.4018,-8.9487 0.4019,-9.9016 0.4019,-0.9528 0.4018,7.0432 0.4019,12.7599 0.4018,0.9528 0.4019,-8.9488 0.4018,-8.9487 0.4019,-0.9528 0.4018,8.9488 0.4019,9.9015 0.4018,1.9056 0.4019,-7.996 0.4018,-9.9016 0.4019,-2.8583 0.4018,8.9488 0.4019,9.9015 0.4018,1.9056 0.4019,-9.9016 0.4018,-9.9015 0.4019,-1.9056 0.4019,9.9016 0.4018,9.9015 h 0.4019 l 0.4018,-8.9488 0.4018,-8.9487 0.4019,0.9527 0.4019,7.0433 0.4018,13.7126 h 0.4019 l 0.4018,-7.996 0.4018,-10.8543 h 0.4019 l 0.4019,7.996 0.4018,9.9016 0.4019,2.8583 0.4019,-7.996 0.4017,-10.8543 h 0.4019 l 0.4019,7.0432 0.4018,10.8543 0.4019,0.9528 0.4019,-9.9016 0.4018,-5.1376 0.4018,-0.9528 0.4019,6.0904 0.4018,9.9016 0.4019,-0.9528 0.4019,-7.996 0.4018,-7.0432 0.4018,-2.8583 0.4019,7.996 0.4018,10.8543 0.4019,-0.9528 0.4019,-7.996 0.4018,-11.8071 0.4018,-0.9528 0.4019,7.996 0.4019,8.9488 0.4018,0.9528 0.4019,-11.8071 0.4018,-8.9488 0.4018,-4.7639 0.4019,5.1377 0.4019,9.9015 h 0.4018 l 0.4019,-10.8543 0.4019,-9.9016 0.4018,-3.8111 0.4018,8.9488 0.4019,8.9488 0.4018,-0.9528 0.4019,-8.9488 0.4019,-8.9488 0.4018,-2.8583 0.4018,7.996 0.4019,12.7599 h 0.4018 l 0.4019,-8.9488 0.4019,-8.9488 0.4018,-2.8583 0.4019,6.0905 0.4018,10.8543 0.4018,0.9528 0.4019,-7.0433 0.4019,-8.9487 0.4018,-1.9056 0.4019,8.9488 0.4018,9.9015 h 0.4018 l 0.4019,-7.996 0.4019,-7.996 h 0.4018 l 0.4019,7.996 0.4019,10.8544 h 0.4018 l 0.4018,-7.996 0.4019,-9.9016 0.4018,-0.9528 0.4019,9.9016 0.4019,8.9488 0.4018,-0.9528 0.4018,-7.0432 0.4019,-9.9016 0.4019,0.9528 0.4018,7.996 0.4019,8.9488 0.4018,1.9055 0.4018,-7.996 0.4019,-6.0904 0.4019,-0.9528 0.4018,8.9488 0.4019,9.9016 0.4018,1.9055 0.4018,-9.9015 0.4019,-7.9961 h 0.4019 l 0.4018,7.0433 0.4019,10.8543 0.4019,1.9056 0.4017,-9.9016 0.4019,-7.996 0.4019,-2.8583 0.4018,7.0432 0.4019,11.8071 0.4019,1.9056 0.4018,-8.9488 0.4018,-8.9488 0.4019,-0.9528 0.4018,9.9016 0.4019,9.9015 h 0.4019 l 0.4018,-6.0904 0.4018,-8.9488 0.4019,-3.8111 0.4018,7.0432 0.4019,7.996 0.4019,-0.9527 0.4018,-9.9016 0.4019,-9.9016 0.4018,-1.9055 0.4019,7.0432 0.4018,7.0432 0.4019,-2.8583 0.4018,-7.0432 0.4019,-9.9016 0.4018,-3.8111 0.4019,8.9488 0.4018,7.996 0.4019,-1.9056 0.4018,-7.996 0.4019,-10.8543 0.4018,-0.9528 0.4019,7.996 0.4018,11.8071 0.4019,1.9056 0.4019,-7.996 0.4018,-7.996 0.4019,-2.8583 0.4018,7.996 0.4018,9.9015 h 0.4019 l 0.4019,-9.9015 0.4018,-10.8544 0.4019,-5.7167 0.4018,9.9016 0.4018,13.7127 0.4019,6.6694 0.4019,-6.0904 0.4018,-5.1377 0.4019,-0.9528 0.4019,14.6655 0.4017,12.7599 0.4019,1.9055 0.4019,-7.0432 0.4018,-7.996 0.4019,0.9528 0.4019,7.996 0.4018,8.9487 0.4018,0.9528 0.4019,-7.0432 0.4018,-8.9488 0.4019,-1.9055 0.4019,7.996 0.4018,11.8071 0.4018,1.9055 0.4019,-9.9015 0.4018,-8.9488 0.4019,-0.9528 0.4019,8.9488 0.4018,8.9488 0.4018,0.9528 0.4019,-8.9488 0.4019,-8.9488 0.4018,-1.9056 0.4019,7.996 0.4018,10.8544 0.4018,0.9528 0.4019,-7.996 0.4019,-7.0433 0.4018,0.9528 0.4019,13.7127 0.4019,13.7126 0.4018,8.575 0.4018,-5.1376 0.4019,-3.2321 0.4018,5.7166 0.4019,8.9488 0.4019,-2.4845 0.4018,-17.15 0.4018,-33.721 0.4019,-35.6266 0.4018,-37.1583 0.4019,-39.6429 0.4019,-35.8318 0.4018,-29.5361 0.4019,-14.6655 0.4018,13.9179 0.4018,54.3084 0.4019,76.596 0.4019,68.021 0.4018,30.4889 0.4019,-1.3266 0.4018,-17.5238 0.4018,-12.3861 0.4019,2.2793 0.4019,8.9488 0.4018,2.8584 0.4019,-7.9961 0.4019,-10.8543 0.4018,-2.8583 0.4018,8.9488 0.4019,9.9015 0.4018,2.8584 0.4019,-5.1377 0.4019,-8.9488 0.4018,-4.7639 0.4018,8.9488 0.4019,10.8543 0.4019,2.8584 0.4018,-10.8544 0.4019,-11.8071 0.4018,-0.9528 0.4018,9.9016 0.4019,9.9016 h 0.4019 l 0.4018,-7.0433 0.4019,-9.9015 0.4018,-2.8584 0.4018,8.9488 0.4019,8.9488 0.4019,1.9056 0.4018,-7.9961 0.4019,-11.8071 0.4019,-1.9055 0.4017,8.9488 0.4019,8.9487 0.4019,1.9056 0.4018,-7.996 0.4019,-9.9016 0.4019,0.9528 0.4018,7.0432 0.4018,10.8544 h 0.4019 l 0.4018,-7.0433 0.4019,-10.8543 h 0.4019 l 0.4018,9.9016"
         style="fill:none;fill-rule:evenodd"
         id="path190" />
    </g>
  </g>
</svg>
